<svg width="320" height="320" viewBox="0 0 320 320" xmlns="http://www.w3.org/2000/svg" shape-rendering="crispEdges"><rect width="100%" height="100%" fill="#d5d7e1" /><rect width="140" height="10" x="90" y="210" fill="#c54e38" /><rect width="140" height="10" x="90" y="220" fill="#c54e38" /><rect width="140" height="10" x="90" y="230" fill="#c54e38" /><rect width="140" height="10" x="90" y="240" fill="#c54e38" /><rect width="20" height="10" x="90" y="250" fill="#c54e38" /><rect width="110" height="10" x="120" y="250" fill="#c54e38" /><rect width="20" height="10" x="90" y="260" fill="#c54e38" /><rect width="110" height="10" x="120" y="260" fill="#c54e38" /><rect width="20" height="10" x="90" y="270" fill="#c54e38" /><rect width="110" height="10" x="120" y="270" fill="#c54e38" /><rect width="20" height="10" x="90" y="280" fill="#c54e38" /><rect width="110" height="10" x="120" y="280" fill="#c54e38" /><rect width="20" height="10" x="90" y="290" fill="#c54e38" /><rect width="110" height="10" x="120" y="290" fill="#c54e38" /><rect width="20" height="10" x="90" y="300" fill="#c54e38" /><rect width="110" height="10" x="120" y="300" fill="#c54e38" /><rect width="20" height="10" x="90" y="310" fill="#c54e38" /><rect width="110" height="10" x="120" y="310" fill="#c54e38" /><rect width="140" height="10" x="90" y="210" fill="#6e3206" /><rect width="140" height="10" x="90" y="230" fill="#6e3206" /><rect width="20" height="10" x="90" y="250" fill="#6e3206" /><rect width="110" height="10" x="120" y="250" fill="#6e3206" /><rect width="20" height="10" x="90" y="270" fill="#6e3206" /><rect width="110" height="10" x="120" y="270" fill="#6e3206" /><rect width="20" height="10" x="90" y="290" fill="#6e3206" /><rect width="110" height="10" x="120" y="290" fill="#6e3206" /><rect width="20" height="10" x="90" y="310" fill="#6e3206" /><rect width="110" height="10" x="120" y="310" fill="#6e3206" /><rect width="30" height="10" x="90" y="90" fill="#ffe939" /><rect width="50" height="10" x="120" y="90" fill="#abaaa8" /><rect width="90" height="10" x="170" y="90" fill="#58565c" /><rect width="20" height="10" x="260" y="90" fill="#f3322c" /><rect width="40" height="10" x="80" y="100" fill="#ffe939" /><rect width="20" height="10" x="120" y="100" fill="#abaaa8" /><rect width="10" height="10" x="140" y="100" fill="#9d8e6e" /><rect width="20" height="10" x="150" y="100" fill="#abaaa8" /><rect width="90" height="10" x="170" y="100" fill="#58565c" /><rect width="20" height="10" x="260" y="100" fill="#f3322c" /><rect width="40" height="10" x="80" y="110" fill="#ffe939" /><rect width="50" height="10" x="120" y="110" fill="#abaaa8" /><rect width="80" height="10" x="170" y="110" fill="#58565c" /><rect width="30" height="10" x="250" y="110" fill="#f3322c" /><rect width="90" height="10" x="30" y="120" fill="#ffe939" /><rect width="50" height="10" x="120" y="120" fill="#abaaa8" /><rect width="80" height="10" x="170" y="120" fill="#58565c" /><rect width="30" height="10" x="250" y="120" fill="#f3322c" /><rect width="100" height="10" x="20" y="130" fill="#ffe939" /><rect width="50" height="10" x="120" y="130" fill="#abaaa8" /><rect width="80" height="10" x="170" y="130" fill="#58565c" /><rect width="30" height="10" x="250" y="130" fill="#f3322c" /><rect width="100" height="10" x="20" y="140" fill="#ffe939" /><rect width="50" height="10" x="120" y="140" fill="#abaaa8" /><rect width="80" height="10" x="170" y="140" fill="#58565c" /><rect width="30" height="10" x="250" y="140" fill="#f3322c" /><rect width="100" height="10" x="20" y="150" fill="#ffe939" /><rect width="50" height="10" x="120" y="150" fill="#abaaa8" /><rect width="70" height="10" x="170" y="150" fill="#58565c" /><rect width="40" height="10" x="240" y="150" fill="#f3322c" /><rect width="100" height="10" x="20" y="160" fill="#ffe939" /><rect width="50" height="10" x="120" y="160" fill="#abaaa8" /><rect width="70" height="10" x="170" y="160" fill="#58565c" /><rect width="40" height="10" x="240" y="160" fill="#f3322c" /><rect width="90" height="10" x="30" y="170" fill="#ffe939" /><rect width="50" height="10" x="120" y="170" fill="#abaaa8" /><rect width="70" height="10" x="170" y="170" fill="#58565c" /><rect width="40" height="10" x="240" y="170" fill="#f3322c" /><rect width="40" height="10" x="80" y="180" fill="#ffe939" /><rect width="50" height="10" x="120" y="180" fill="#abaaa8" /><rect width="70" height="10" x="170" y="180" fill="#58565c" /><rect width="40" height="10" x="240" y="180" fill="#f3322c" /><rect width="30" height="10" x="80" y="190" fill="#ffe939" /><rect width="20" height="10" x="110" y="190" fill="#f3322c" /><rect width="10" height="10" x="130" y="190" fill="#abaaa8" /><rect width="10" height="10" x="140" y="190" fill="#9d8e6e" /><rect width="20" height="10" x="150" y="190" fill="#abaaa8" /><rect width="60" height="10" x="170" y="190" fill="#58565c" /><rect width="50" height="10" x="230" y="190" fill="#f3322c" /><rect width="30" height="10" x="90" y="200" fill="#ffe939" /><rect width="50" height="10" x="120" y="200" fill="#abaaa8" /><rect width="60" height="10" x="170" y="200" fill="#58565c" /><rect width="50" height="10" x="230" y="200" fill="#f3322c" /><rect width="10" height="10" x="240" y="210" fill="#f3322c" /><rect width="20" height="10" x="260" y="210" fill="#f3322c" /><rect width="20" height="10" x="260" y="220" fill="#f3322c" /><rect width="10" height="10" x="260" y="230" fill="#f3322c" /><rect width="10" height="10" x="260" y="240" fill="#f3322c" /><rect width="60" height="10" x="100" y="110" fill="#e8705b" /><rect width="60" height="10" x="170" y="110" fill="#e8705b" /><rect width="10" height="10" x="100" y="120" fill="#e8705b" /><rect width="20" height="10" x="110" y="120" fill="#ffffff" /><rect width="20" height="10" x="130" y="120" fill="#000000" /><rect width="10" height="10" x="150" y="120" fill="#e8705b" /><rect width="10" height="10" x="170" y="120" fill="#e8705b" /><rect width="20" height="10" x="180" y="120" fill="#ffffff" /><rect width="20" height="10" x="200" y="120" fill="#000000" /><rect width="10" height="10" x="220" y="120" fill="#e8705b" /><rect width="40" height="10" x="70" y="130" fill="#e8705b" /><rect width="20" height="10" x="110" y="130" fill="#ffffff" /><rect width="20" height="10" x="130" y="130" fill="#000000" /><rect width="30" height="10" x="150" y="130" fill="#e8705b" /><rect width="20" height="10" x="180" y="130" fill="#ffffff" /><rect width="20" height="10" x="200" y="130" fill="#000000" /><rect width="10" height="10" x="220" y="130" fill="#e8705b" /><rect width="10" height="10" x="70" y="140" fill="#e8705b" /><rect width="10" height="10" x="100" y="140" fill="#e8705b" /><rect width="20" height="10" x="110" y="140" fill="#ffffff" /><rect width="20" height="10" x="130" y="140" fill="#000000" /><rect width="10" height="10" x="150" y="140" fill="#e8705b" /><rect width="10" height="10" x="170" y="140" fill="#e8705b" /><rect width="20" height="10" x="180" y="140" fill="#ffffff" /><rect width="20" height="10" x="200" y="140" fill="#000000" /><rect width="10" height="10" x="220" y="140" fill="#e8705b" /><rect width="10" height="10" x="70" y="150" fill="#e8705b" /><rect width="10" height="10" x="100" y="150" fill="#e8705b" /><rect width="20" height="10" x="110" y="150" fill="#ffffff" /><rect width="20" height="10" x="130" y="150" fill="#000000" /><rect width="10" height="10" x="150" y="150" fill="#e8705b" /><rect width="10" height="10" x="170" y="150" fill="#e8705b" /><rect width="20" height="10" x="180" y="150" fill="#ffffff" /><rect width="20" height="10" x="200" y="150" fill="#000000" /><rect width="10" height="10" x="220" y="150" fill="#e8705b" /><rect width="60" height="10" x="100" y="160" fill="#e8705b" /><rect width="60" height="10" x="170" y="160" fill="#e8705b" /></svg>